<svg width="512" height="512" xmlns="http://www.w3.org/2000/svg">
    <g>
        <title>Layer 1</title>
        <g font-size="1353.902222px" font-style="italic" font-weight="normal" fill="#555555" font-family="Serif" id="text10546">
            <g transform="matrix(0.795232 0 0 -0.795232 559.414 167.416)" id="g3362">
                <path fill="#555555"
                      d="m-75.641701,123.962997c2.420998,-2.420998 3.631203,-5.273994 3.631203,-8.558998c0,-3.286003 -1.210205,-6.139 -3.631203,-8.559998l-326.808311,-326.808998c-2.074982,-2.421005 -4.84198,-3.630997 -8.299988,-3.630997l-0.519012,0l-0.518982,0c-3.112,0 -5.878998,1.209991 -8.299011,3.630997l-151.473969,150.954895c-2.420044,3.112404 -3.631042,6.052101 -3.631042,8.8186c0,2.766502 1.210999,5.706203 3.631042,8.818703l64.842987,64.843099c5.878998,5.1874 11.758972,5.1874 17.638,0l77.810974,-78.330499l253.147018,253.666199c3.112991,2.421005 6.051987,3.630997 8.819,3.630997c2.765991,0 5.705994,-1.209991 8.817993,-3.630997l64.8433,-64.843002l0,0l0,0zm-64.461296,-436.555984c0,-22.253021 -17.987,-40.240021 -40.240005,-40.240021l-402.398026,0c-22.212952,0 -40.23999,17.987 -40.23999,40.240021l0,402.398384c0,22.252602 18.027039,40.239601 40.23999,40.239601l259.41803,0l87.153,80.479996l-386.81102,0c-44.424988,0 -80.47998,-36.054993 -80.47998,-80.479996l0,-482.878006c0,-44.423981 36.054993,-80.479004 80.47998,-80.479004l482.878021,0c44.424698,0 80.479595,36.055023 80.479595,80.479004l0,331.978909l-80.479595,-66.8829l0,-224.855988z" id="path3364"/>
            </g>
        </g>
    </g>
</svg>
