<svg width="640" height="605" xmlns="http://www.w3.org/2000/svg">

    <metadata id="metadata7">image/svg+xmlMan silhouetteMan silhouette people person head shoulders face</metadata>
    <g>
        <title>Layer 1</title>
        <g id="layer1">
            <path fill="#000000" id="path2396" d="m0,594.78296c0,-10.65234 17.73867,-102.20276 20.7452,-107.06747c1.07119,-1.73322 3.73196,-12.96002 5.91277,-24.94843c5.08728,-27.96542 14.46659,-58.01309 19.98742,-64.03207c2.37335,-2.58752 23.67087,-8.7381 47.32788,-13.66803c72.67469,-15.14478 104.70521,-26.81042 120.51897,-43.89331c7.53751,-8.14246 18.93738,-16.62866 25.33304,-18.85822c10.16138,-3.54224 11.62848,-5.79596 11.62848,-17.86365c0,-7.59549 -2.32166,-17.14124 -5.15918,-21.2128c-2.83752,-4.07162 -6.40753,-15.00281 -7.93335,-24.2916c-1.52585,-9.28877 -5.95969,-19.91002 -9.85303,-23.60271c-3.89331,-3.69272 -7.0788,-8.40549 -7.0788,-10.47284c0,-2.06735 -3.79993,-8.89844 -8.44434,-15.18015c-7.20302,-9.74246 -8.51347,-16.47839 -8.91475,-45.82281c-0.77522,-56.69315 4.08463,-82.63574 19.96089,-106.55435c22.41718,-33.7729 65.70827,-57.16452 105.99452,-57.27238c15.74176,-0.04214 22.35587,1.783 28.96613,7.993c4.99167,4.68944 16.72253,9.33698 28.11191,11.13737c22.65991,3.58206 43.03946,17.9722 52.93448,37.37747c4.97467,9.75589 6.56342,22.12062 6.56784,51.11598c0.00327,21.44308 1.65475,39.26627 3.75885,40.56668c10.20547,6.30734 0.68497,49.8862 -15.32523,70.14948c-6.02036,7.6196 -10.98315,16.90836 -11.02847,20.64169c-0.04535,3.73337 -3.42307,14.15002 -7.50607,23.14818c-13.56027,29.88416 -8.89404,59.461 10.42548,66.08148c3.60007,1.2337 12.45667,9.84369 19.68124,19.1333c7.22461,9.28964 17.35785,17.84473 22.51828,19.01117c5.1604,1.16656 28.3028,9.55585 51.4274,18.64301c23.12469,9.0871 43.172,16.522 44.54962,16.522c1.37762,0 9.82074,4.64438 18.76251,10.32089c15.97955,10.14423 24.12292,23.68506 24.12292,40.11163c0,4.41599 3.49237,14.71939 7.7608,22.89645c6.86908,13.15921 11.54443,38.39487 21.00671,113.3848l2.01263,15.95044l-319.38638,0l-319.38638,0l0,-9.44421z"/>
        </g>
    </g>
</svg>
